HIERARCHY
ROOT hip
{
	OFFSET 0.000000 0.000000 0.000000 
	CHANNELS 6 Xposition Yposition Zposition Xrotation Zrotation Yrotation
	JOINT abdomen
	{
		OFFSET 0.000000 3.402643 0.000000 
		CHANNELS 3 Xrotation Zrotation Yrotation
		JOINT chest
		{
			OFFSET 0.000000 8.438565 -0.680529 
			CHANNELS 3 Xrotation Zrotation Yrotation
			JOINT neck
			{
				OFFSET 0.000000 10.207942 -0.272212 
				CHANNELS 3 Xrotation Zrotation Yrotation
				JOINT head
				{
					OFFSET 0.000000 3.130431 0.000000 
					CHANNELS 3 Xrotation Zrotation Yrotation
					End Site
					{
						OFFSET 0.000000 3.130435 0.000000 
					}
				}
			}
			JOINT lCollar
			{
				OFFSET 3.470700 6.669187 -0.816635 
				CHANNELS 3 Yrotation Zrotation Xrotation
				JOINT lShldr
				{
					OFFSET 3.198488 0.000000 0.000000 
					CHANNELS 3 Zrotation Yrotation Xrotation
					JOINT lForeArm
					{
						OFFSET 10.139888 0.000000 0.000000 
						CHANNELS 3 Yrotation Zrotation Xrotation
						JOINT lHand
						{
							OFFSET 8.370511 0.000000 0.000000 
							CHANNELS 3 Zrotation Yrotation Xrotation
							End Site
							{
								OFFSET 4.083176 0.000000 0.000000 
							}
						}
					}
				}
			}
			JOINT rCollar
			{
				OFFSET -3.470700 6.669187 -0.816635 
				CHANNELS 3 Yrotation Zrotation Xrotation
				JOINT rShldr
				{
					OFFSET -3.198488 0.000000 0.000000 
					CHANNELS 3 Zrotation Yrotation Xrotation
					JOINT rForeArm
					{
						OFFSET -10.139888 0.000000 0.000000 
						CHANNELS 3 Yrotation Zrotation Xrotation
						JOINT rHand
						{
							OFFSET -8.370511 0.000000 0.000000 
							CHANNELS 3 Zrotation Yrotation Xrotation
							End Site
							{
								OFFSET -4.083176 0.000000 0.000000 
							}
						}
					}
				}
			}
		}
	}
	JOINT lThigh
	{
		OFFSET 5.308129 -1.633274 1.361059 
		CHANNELS 3 Xrotation Zrotation Yrotation
		JOINT lShin
		{
			OFFSET -2.041588 -20.007561 0.000000 
			CHANNELS 3 Xrotation Zrotation Yrotation
			JOINT lFoot
			{
				OFFSET 0.000000 -19.190928 -1.224953 
				CHANNELS 3 Xrotation Yrotation Zrotation
				End Site
				{
					OFFSET 0.000000 -2.449906 4.627600 
				}
			}
		}
	}
	JOINT rThigh
	{
		OFFSET -5.308129 -1.633274 1.361059 
		CHANNELS 3 Xrotation Zrotation Yrotation
		JOINT rShin
		{
			OFFSET 2.041588 -20.007561 0.000000 
			CHANNELS 3 Xrotation Zrotation Yrotation
			JOINT rFoot
			{
				OFFSET 0.000000 -19.190928 -1.224953 
				CHANNELS 3 Xrotation Yrotation Zrotation
				End Site
				{
					OFFSET 0.000000 -2.449906 4.627600 
				}
			}
		}
	}
}
MOTION
Frames: 18
Frame Time: 0.016667
-1.977395 52.237568 -16.837637 -8.339456 -5.544892 -3.739126 33.741570 2.349303 5.307056 2.204331 4.309104 5.019420 -16.526737 -0.977004 0.266317 5.470619 -0.653973 10.000570 -0.319728 -8.935781 -0.471891 -66.034843 -4.232407 -1.124419 -40.018055 -5.000000 22.204165 -8.298301 -19.429098 -19.958126 -1.121823 6.800256 -0.361502 72.005180 29.146252 39.957535 44.088139 -4.962197 -6.742574 9.877208 -5.677390 -25.111603 -7.194481 19.581017 4.133227 8.433154 -6.481813 -1.255461 7.220068 -2.521304 -8.474174 13.089559 5.933184 -10.855286 12.407691 3.345885 0.804710 -17.048290 -9.190446 0.173925 
-1.989841 52.232594 -16.837538 -8.368518 -5.428074 -3.718731 33.772106 2.201992 5.282499 2.207689 4.328472 5.068901 -16.614838 -0.985198 0.277431 5.489472 -0.663769 9.912683 -0.329412 -8.926026 -0.471388 -65.981201 -4.105544 -1.318139 -39.973881 -5.000000 22.343992 -8.241279 -19.534971 -19.926870 -1.160761 6.819768 -0.362512 71.915161 28.754850 39.435318 44.304150 -4.739738 -6.467648 9.212925 -4.683321 -25.237236 -7.194994 19.485018 4.152918 8.474295 -6.444368 -1.237562 7.304435 -2.657949 -8.522268 13.104280 5.829104 -10.922747 12.480392 3.337336 0.818350 -17.077389 -9.199367 0.244048 
-2.003765 52.230598 -16.835932 -8.390536 -5.418448 -3.698364 33.783554 2.174180 5.320204 2.226887 4.348057 5.049429 -16.585543 -0.985198 0.277431 5.476461 -0.683029 9.903031 -0.329412 -8.926026 -0.471388 -65.941902 -3.899759 -1.593645 -39.987083 -5.000000 22.446161 -8.184635 -19.551086 -19.992855 -1.209276 6.868539 -0.365039 71.881706 28.479673 39.151821 44.480461 -4.628551 -6.316380 8.596821 -4.036812 -25.574812 -7.148432 19.501207 4.168492 8.442252 -6.454245 -1.235391 7.332959 -2.668669 -8.524096 13.131621 5.837722 -10.907789 12.498448 3.346783 0.810773 -17.101496 -9.223525 0.249676 
-2.018674 52.230598 -16.833326 -8.410644 -5.467414 -3.659481 33.790703 2.234664 5.376088 2.243833 4.367772 4.960940 -16.477955 -0.986660 0.267777 5.423794 -0.702186 9.942088 -0.310045 -8.945533 -0.472393 -65.897606 -3.622188 -1.934177 -40.022541 -5.000000 22.530819 -8.125162 -19.508587 -20.125143 -1.267491 6.927063 -0.368070 71.886604 28.280222 39.038631 44.640129 -4.597813 -6.249989 8.005132 -3.643559 -26.037374 -7.126348 19.551945 4.160093 8.379543 -6.470949 -1.260065 7.350414 -2.650266 -8.507349 13.128985 5.914221 -10.854128 12.519160 3.344888 0.811935 -17.094093 -9.247065 0.193010 
-2.032597 52.230610 -16.831722 -8.430177 -5.496770 -3.640040 33.795563 2.271791 5.410995 2.251729 4.387441 4.902462 -16.370487 -0.977004 0.266317 5.398831 -0.730977 9.971503 -0.298742 -8.945585 -0.462746 -65.862991 -3.357179 -2.268017 -40.025524 -5.000000 22.636116 -8.068263 -19.479540 -20.302982 -1.315810 7.005090 -0.372111 71.887726 28.119282 38.972832 44.748318 -4.595834 -6.224450 7.458607 -3.259037 -26.494402 -7.078476 19.612785 4.145851 8.328098 -6.505330 -1.266007 7.391381 -2.678971 -8.503904 13.163421 5.976090 -10.799816 12.506482 3.355896 0.802505 -17.118433 -9.268683 0.124031 
-2.042565 52.230614 -16.834131 -8.438439 -5.418389 -3.708086 33.766636 2.205102 5.305665 2.245144 4.416605 4.921937 -16.253008 -0.949499 0.252281 5.483468 -0.750236 9.961740 -0.298662 -8.935833 -0.462244 -65.828651 -3.103463 -2.575238 -39.886356 -5.000000 22.824230 -7.999904 -19.535597 -20.686275 -1.314839 7.151376 -0.379686 71.857872 28.091375 39.090214 44.670589 -4.705086 -6.350333 7.113204 -2.849162 -26.926403 -6.961429 19.545244 4.217159 8.167221 -6.521111 -1.213138 7.425841 -2.548656 -8.390993 13.157809 5.904072 -10.773598 12.470253 3.335010 0.836962 -17.000877 -9.199892 0.106448 
-2.052533 52.230614 -16.836540 -8.436478 -5.349756 -3.777054 33.727554 2.125760 5.206062 2.229573 4.445723 4.961668 -16.125927 -0.920532 0.247900 5.568241 -0.769519 9.942207 -0.288736 -8.916328 -0.461238 -65.785416 -2.844808 -2.890969 -39.759644 -5.000000 23.002361 -7.931263 -19.584158 -21.081209 -1.323680 7.287912 -0.386754 71.839584 28.060400 39.221260 44.602936 -4.808281 -6.468475 6.762167 -2.443847 -27.372066 -6.853179 19.474285 4.287031 8.012255 -6.541814 -1.209081 7.471979 -2.437994 -8.314257 13.160833 5.837506 -10.756384 12.474877 3.316104 0.845601 -16.915743 -9.109447 0.097097 
-2.056480 52.232601 -16.833031 -8.467475 -5.319856 -3.884006 33.737221 2.111972 5.210113 2.221133 4.455428 4.971405 -16.038036 -0.920532 0.247900 5.666946 -0.769702 9.864089 -0.337644 -8.926082 -0.461741 -65.741081 -2.611260 -3.196799 -39.535820 -5.000000 23.236530 -7.823217 -19.582048 -21.400665 -1.342472 7.395192 -0.392306 71.845634 28.117033 39.423439 44.490128 -4.975150 -6.661559 6.436019 -2.308319 -27.306778 -6.736367 19.446608 4.368266 7.915609 -6.520806 -1.198702 7.504200 -2.384708 -8.337317 13.217902 5.778057 -10.661798 12.446585 3.345680 0.856055 -16.889780 -9.107686 0.067619 
-2.058923 52.235096 -16.828024 -8.496535 -5.319170 -3.991868 33.737751 2.088942 5.231350 2.222268 4.474927 4.971406 -15.969676 -0.920532 0.247900 5.767571 -0.760305 9.766442 -0.386552 -8.935833 -0.462244 -65.687706 -2.376530 -3.502169 -39.292320 -5.000000 23.478308 -7.710176 -19.559435 -21.698593 -1.371157 7.482966 -0.396847 71.845390 28.216421 39.645340 44.355423 -5.000000 -6.878473 6.118415 -2.234512 -27.111248 -6.621017 19.451681 4.420415 7.817126 -6.502774 -1.149579 7.535969 -2.365725 -8.421750 13.269909 5.721331 -10.528515 12.439576 3.375764 0.828909 -16.888836 -9.043306 0.103772 
-2.059393 52.237583 -16.825052 -8.517650 -5.318595 -4.080283 33.740364 2.107386 5.260924 2.232401 4.494469 4.951906 -15.930697 -0.939843 0.250821 5.844696 -0.770042 9.717618 -0.398264 -8.984528 -0.474404 -65.630196 -2.211557 -3.721358 -39.025845 -5.000000 23.713467 -7.624030 -19.540850 -21.929522 -1.390276 7.541485 -0.399874 71.833656 28.352972 39.864254 44.203197 -5.000000 -7.069828 5.914819 -2.144768 -26.924255 -6.531804 19.437067 4.468539 7.779955 -6.455151 -1.153222 7.583553 -2.334035 -8.470891 13.300089 5.702338 -10.429954 12.429131 3.414734 0.831760 -16.925516 -9.111655 0.095034 
-2.056905 52.240070 -16.825071 -8.549342 -5.357232 -4.129809 33.773952 2.172807 5.290099 2.263395 4.523717 4.912846 -15.940550 -0.959154 0.253742 5.867399 -0.808544 9.717751 -0.311202 -9.082064 -0.479429 -65.546242 -2.149053 -3.827634 -38.723667 -5.000000 23.934771 -7.576619 -19.551403 -22.046204 -1.409669 7.560993 -0.400883 71.796204 28.542187 40.079811 44.005867 -5.000000 -7.226068 5.882843 -2.042334 -26.768711 -6.472610 19.445744 4.484400 7.747940 -6.431556 -1.178562 7.559793 -2.314440 -8.537085 13.345259 5.710203 -10.373354 12.411522 3.442338 0.832930 -17.066607 -9.238118 0.134115 
-2.054416 52.242561 -16.825092 -8.572124 -5.395926 -4.169619 33.788097 2.251740 5.315267 2.304155 4.552965 4.883549 -15.960166 -0.978465 0.256662 5.888453 -0.856671 9.717890 -0.232336 -9.179640 -0.474812 -65.472801 -2.078025 -3.928997 -38.428192 -5.000000 24.160126 -7.519934 -19.550697 -22.174507 -1.420596 7.580256 -0.392214 71.751167 28.738182 40.295059 43.808277 -5.000000 -7.384024 5.851122 -1.940746 -26.603436 -6.386749 19.492195 4.520890 7.702188 -6.424603 -1.202796 7.537046 -2.293446 -8.603258 13.380502 5.737036 -10.284765 12.394153 3.472274 0.805664 -17.251179 -9.379740 0.137490 
-2.056907 52.245049 -16.825071 -8.598654 -5.395724 -4.198785 33.810337 2.264170 5.354085 2.305070 4.582258 4.845298 -15.911777 -1.034938 0.275079 5.943638 -0.828035 9.620103 -0.291759 -9.277164 -0.479837 -65.374435 -1.945893 -4.090286 -38.216190 -5.000000 24.279421 -7.493944 -19.560760 -22.101379 -1.390207 7.551238 -0.400378 71.662186 28.846884 40.281521 43.703346 -5.000000 -7.375423 5.819074 -1.862185 -26.683559 -6.356814 19.478792 4.556510 7.708269 -6.403699 -1.134563 7.536901 -2.272644 -8.556211 13.422769 5.729203 -10.252073 12.377542 3.492227 0.835368 -17.374269 -9.319327 0.060467 
-2.059398 52.247532 -16.825052 -8.624459 -5.405261 -4.227952 33.823044 2.280562 5.382209 2.307327 4.621256 4.825772 -15.873180 -1.091410 0.293494 6.000207 -0.789726 9.532087 -0.341510 -9.384439 -0.485363 -65.286674 -1.805036 -4.246760 -37.994789 -5.000000 24.402157 -7.460788 -19.580956 -22.038198 -1.370951 7.512225 -0.398360 71.573120 28.955601 40.267784 43.598408 -5.000000 -7.367661 5.782473 -1.796813 -26.764809 -6.346584 19.487143 4.616797 7.740116 -6.396105 -1.127158 7.559403 -2.373180 -8.575262 13.465687 5.721770 -10.229181 12.352916 3.503233 0.873345 -17.511715 -9.269698 -0.034359 
-2.061866 52.250023 -16.822044 -8.673429 -5.366102 -4.257117 33.841621 2.257937 5.382796 2.336060 4.611506 4.845303 -15.843985 -1.110721 0.296415 6.051982 -0.780317 9.434441 -0.391016 -9.462457 -0.490987 -65.205444 -1.711997 -4.392098 -37.844086 -5.000000 24.468184 -7.479690 -19.595764 -22.020052 -1.342942 7.511992 -0.388681 71.463158 29.019760 40.163540 43.564888 -5.000000 -7.315222 5.623051 -1.730141 -26.681427 -6.268152 19.446548 4.673791 7.737559 -6.384299 -1.107137 7.520011 -2.371622 -8.597011 13.478108 5.678445 -10.185587 12.387710 3.489838 0.855318 -17.445059 -9.229918 -0.072168 
-2.064318 52.252502 -16.817049 -8.725369 -5.287991 -4.286282 33.868034 2.212176 5.361622 2.382631 4.572508 4.893347 -15.834219 -1.110721 0.296415 6.102007 -0.780515 9.346558 -0.420911 -9.530723 -0.494513 -65.122208 -1.648418 -4.518976 -37.738327 -5.000000 24.506077 -7.536923 -19.617752 -22.039360 -1.313645 7.511992 -0.388681 71.342445 29.069136 40.002777 43.581253 -5.000000 -7.243594 5.382102 -1.668879 -26.486790 -6.209330 19.368612 4.728333 7.784411 -6.341714 -1.129114 7.519270 -2.424456 -8.654173 13.529054 5.582262 -10.128898 12.419235 3.490507 0.818444 -17.203646 -9.136423 -0.030814 
-2.067760 52.253498 -16.811518 -8.777544 -5.219688 -4.305724 33.884357 2.171049 5.331464 2.430331 4.553010 4.922643 -15.824503 -1.120377 0.297875 6.151899 -0.780690 9.268441 -0.442609 -9.589160 -0.507164 -65.068054 -1.591620 -4.657809 -37.639053 -5.000000 24.547613 -7.545788 -19.628929 -22.063440 -1.273295 7.512208 -0.398361 71.226646 29.096718 39.826481 43.618294 -5.000000 -7.154651 5.142579 -1.624342 -26.332813 -6.121773 19.311026 4.776278 7.777500 -6.334126 -1.147263 7.457312 -2.466478 -8.690245 13.568771 5.523973 -10.105738 12.468080 3.463789 0.790160 -17.064894 -9.164253 -0.001683 
-2.075164 52.248520 -16.803984 -8.804446 -5.181066 -4.256208 33.901955 2.163138 5.296074 2.455041 4.601621 4.903801 -15.814991 -1.168655 0.305176 6.176892 -0.809672 9.239145 -0.413665 -9.628174 -0.509177 -65.091209 -1.548491 -4.754598 -37.555943 -5.000000 24.636635 -7.405224 -19.580143 -22.049616 -1.214907 7.482941 -0.396847 71.094971 29.072510 39.581112 43.715488 -5.000000 -7.037741 4.899754 -1.695625 -26.244741 -6.093059 19.284386 4.719787 7.726999 -6.381456 -1.115834 7.477385 -2.477675 -8.672326 13.577738 5.504071 -10.128080 12.508245 3.461611 0.821888 -17.362680 -9.443641 0.103150 
